<mxfile host="app.diagrams.net" agent="Mozilla/5.0 (Windows NT 10.0; Win64; x64) AppleWebKit/537.36 (KHTML, like Gecko) Chrome/126.0.0.0 Safari/537.36" version="24.8.2">
  <diagram name="第 1 页" id="bG26N9Mo_tNbb_U1LO_2">
    <mxGraphModel dx="920" dy="752" grid="1" gridSize="10" guides="1" tooltips="1" connect="1" arrows="1" fold="1" page="1" pageScale="1" pageWidth="827" pageHeight="1169" math="0" shadow="0">
      <root>
        <mxCell id="0" />
        <mxCell id="1" parent="0" />
        <mxCell id="RVGGCPNI0EhBYUwfPTv6-15" style="edgeStyle=orthogonalEdgeStyle;rounded=0;orthogonalLoop=1;jettySize=auto;html=1;exitX=0.5;exitY=1;exitDx=0;exitDy=0;exitPerimeter=0;entryX=0.5;entryY=0;entryDx=0;entryDy=0;" edge="1" parent="1" source="RVGGCPNI0EhBYUwfPTv6-1" target="RVGGCPNI0EhBYUwfPTv6-2">
          <mxGeometry relative="1" as="geometry" />
        </mxCell>
        <mxCell id="RVGGCPNI0EhBYUwfPTv6-1" value="" style="strokeWidth=2;html=1;shape=mxgraph.flowchart.start_2;whiteSpace=wrap;" vertex="1" parent="1">
          <mxGeometry x="360" y="10" width="100" height="100" as="geometry" />
        </mxCell>
        <mxCell id="RVGGCPNI0EhBYUwfPTv6-16" style="edgeStyle=orthogonalEdgeStyle;rounded=0;orthogonalLoop=1;jettySize=auto;html=1;exitX=0.5;exitY=0;exitDx=0;exitDy=0;entryX=0.5;entryY=0;entryDx=0;entryDy=0;" edge="1" parent="1" source="RVGGCPNI0EhBYUwfPTv6-3" target="RVGGCPNI0EhBYUwfPTv6-4">
          <mxGeometry relative="1" as="geometry" />
        </mxCell>
        <mxCell id="RVGGCPNI0EhBYUwfPTv6-17" style="edgeStyle=orthogonalEdgeStyle;rounded=0;orthogonalLoop=1;jettySize=auto;html=1;" edge="1" parent="1" target="RVGGCPNI0EhBYUwfPTv6-5">
          <mxGeometry relative="1" as="geometry">
            <mxPoint x="310" y="230" as="sourcePoint" />
          </mxGeometry>
        </mxCell>
        <mxCell id="RVGGCPNI0EhBYUwfPTv6-18" style="edgeStyle=orthogonalEdgeStyle;rounded=0;orthogonalLoop=1;jettySize=auto;html=1;exitX=0.5;exitY=1;exitDx=0;exitDy=0;entryX=0.5;entryY=0;entryDx=0;entryDy=0;" edge="1" parent="1" source="RVGGCPNI0EhBYUwfPTv6-2" target="RVGGCPNI0EhBYUwfPTv6-4">
          <mxGeometry relative="1" as="geometry" />
        </mxCell>
        <mxCell id="RVGGCPNI0EhBYUwfPTv6-2" value="row, col" style="shape=parallelogram;html=1;strokeWidth=2;perimeter=parallelogramPerimeter;whiteSpace=wrap;rounded=1;arcSize=12;size=0.23;" vertex="1" parent="1">
          <mxGeometry x="350" y="140" width="136" height="60" as="geometry" />
        </mxCell>
        <mxCell id="RVGGCPNI0EhBYUwfPTv6-3" value="init: fixed" style="rounded=1;whiteSpace=wrap;html=1;absoluteArcSize=1;arcSize=14;strokeWidth=2;" vertex="1" parent="1">
          <mxGeometry x="160" y="250" width="130" height="80" as="geometry" />
        </mxCell>
        <mxCell id="RVGGCPNI0EhBYUwfPTv6-4" value="init: random" style="rounded=1;whiteSpace=wrap;html=1;absoluteArcSize=1;arcSize=14;strokeWidth=2;" vertex="1" parent="1">
          <mxGeometry x="350" y="250" width="130" height="80" as="geometry" />
        </mxCell>
        <mxCell id="RVGGCPNI0EhBYUwfPTv6-5" value="init: pre sets" style="rounded=1;whiteSpace=wrap;html=1;absoluteArcSize=1;arcSize=14;strokeWidth=2;" vertex="1" parent="1">
          <mxGeometry x="550" y="250" width="130" height="80" as="geometry" />
        </mxCell>
        <mxCell id="RVGGCPNI0EhBYUwfPTv6-8" value="yes" style="edgeStyle=orthogonalEdgeStyle;rounded=0;orthogonalLoop=1;jettySize=auto;html=1;exitX=0.5;exitY=1;exitDx=0;exitDy=0;exitPerimeter=0;entryX=0.5;entryY=0;entryDx=0;entryDy=0;" edge="1" parent="1" source="RVGGCPNI0EhBYUwfPTv6-6" target="RVGGCPNI0EhBYUwfPTv6-7">
          <mxGeometry relative="1" as="geometry" />
        </mxCell>
        <mxCell id="RVGGCPNI0EhBYUwfPTv6-10" value="No" style="edgeStyle=orthogonalEdgeStyle;rounded=0;orthogonalLoop=1;jettySize=auto;html=1;exitX=1;exitY=0.5;exitDx=0;exitDy=0;exitPerimeter=0;entryX=0.5;entryY=0;entryDx=0;entryDy=0;" edge="1" parent="1" source="RVGGCPNI0EhBYUwfPTv6-6" target="RVGGCPNI0EhBYUwfPTv6-9">
          <mxGeometry relative="1" as="geometry" />
        </mxCell>
        <mxCell id="RVGGCPNI0EhBYUwfPTv6-6" value="one Generation?" style="strokeWidth=2;html=1;shape=mxgraph.flowchart.decision;whiteSpace=wrap;" vertex="1" parent="1">
          <mxGeometry x="352" y="380" width="124" height="110" as="geometry" />
        </mxCell>
        <mxCell id="RVGGCPNI0EhBYUwfPTv6-12" style="edgeStyle=orthogonalEdgeStyle;rounded=0;orthogonalLoop=1;jettySize=auto;html=1;exitX=0.5;exitY=1;exitDx=0;exitDy=0;entryX=0.5;entryY=0;entryDx=0;entryDy=0;" edge="1" parent="1" source="RVGGCPNI0EhBYUwfPTv6-7" target="RVGGCPNI0EhBYUwfPTv6-11">
          <mxGeometry relative="1" as="geometry" />
        </mxCell>
        <mxCell id="RVGGCPNI0EhBYUwfPTv6-7" value="Next()" style="rounded=1;whiteSpace=wrap;html=1;absoluteArcSize=1;arcSize=14;strokeWidth=2;" vertex="1" parent="1">
          <mxGeometry x="364" y="540" width="100" height="100" as="geometry" />
        </mxCell>
        <mxCell id="RVGGCPNI0EhBYUwfPTv6-13" style="edgeStyle=orthogonalEdgeStyle;rounded=0;orthogonalLoop=1;jettySize=auto;html=1;exitX=0.5;exitY=1;exitDx=0;exitDy=0;entryX=1;entryY=0.5;entryDx=0;entryDy=0;" edge="1" parent="1" source="RVGGCPNI0EhBYUwfPTv6-9" target="RVGGCPNI0EhBYUwfPTv6-7">
          <mxGeometry relative="1" as="geometry" />
        </mxCell>
        <mxCell id="RVGGCPNI0EhBYUwfPTv6-9" value="time interval" style="shape=parallelogram;html=1;strokeWidth=2;perimeter=parallelogramPerimeter;whiteSpace=wrap;rounded=1;arcSize=12;size=0.23;" vertex="1" parent="1">
          <mxGeometry x="550" y="490" width="100" height="60" as="geometry" />
        </mxCell>
        <mxCell id="RVGGCPNI0EhBYUwfPTv6-11" value="Update" style="shape=parallelogram;html=1;strokeWidth=2;perimeter=parallelogramPerimeter;whiteSpace=wrap;rounded=1;arcSize=12;size=0.23;" vertex="1" parent="1">
          <mxGeometry x="364" y="730" width="100" height="60" as="geometry" />
        </mxCell>
        <mxCell id="RVGGCPNI0EhBYUwfPTv6-14" style="edgeStyle=orthogonalEdgeStyle;rounded=0;orthogonalLoop=1;jettySize=auto;html=1;entryX=0;entryY=0.5;entryDx=0;entryDy=0;entryPerimeter=0;" edge="1" parent="1" target="RVGGCPNI0EhBYUwfPTv6-6">
          <mxGeometry relative="1" as="geometry">
            <mxPoint x="370" y="760" as="sourcePoint" />
            <Array as="points">
              <mxPoint x="280" y="760" />
              <mxPoint x="280" y="435" />
            </Array>
          </mxGeometry>
        </mxCell>
        <mxCell id="RVGGCPNI0EhBYUwfPTv6-19" style="edgeStyle=orthogonalEdgeStyle;rounded=0;orthogonalLoop=1;jettySize=auto;html=1;exitX=0.5;exitY=1;exitDx=0;exitDy=0;entryX=0.5;entryY=0;entryDx=0;entryDy=0;entryPerimeter=0;" edge="1" parent="1" source="RVGGCPNI0EhBYUwfPTv6-4" target="RVGGCPNI0EhBYUwfPTv6-6">
          <mxGeometry relative="1" as="geometry" />
        </mxCell>
        <mxCell id="RVGGCPNI0EhBYUwfPTv6-20" style="edgeStyle=orthogonalEdgeStyle;rounded=0;orthogonalLoop=1;jettySize=auto;html=1;exitX=0.5;exitY=1;exitDx=0;exitDy=0;entryX=0.5;entryY=0;entryDx=0;entryDy=0;entryPerimeter=0;" edge="1" parent="1" source="RVGGCPNI0EhBYUwfPTv6-3" target="RVGGCPNI0EhBYUwfPTv6-6">
          <mxGeometry relative="1" as="geometry" />
        </mxCell>
        <mxCell id="RVGGCPNI0EhBYUwfPTv6-21" style="edgeStyle=orthogonalEdgeStyle;rounded=0;orthogonalLoop=1;jettySize=auto;html=1;exitX=0.5;exitY=1;exitDx=0;exitDy=0;entryX=0.5;entryY=0;entryDx=0;entryDy=0;entryPerimeter=0;" edge="1" parent="1" source="RVGGCPNI0EhBYUwfPTv6-5" target="RVGGCPNI0EhBYUwfPTv6-6">
          <mxGeometry relative="1" as="geometry" />
        </mxCell>
        <mxCell id="RVGGCPNI0EhBYUwfPTv6-22" value="Input" style="rounded=0;whiteSpace=wrap;html=1;strokeColor=#FF9645;fillColor=none;align=left;" vertex="1" parent="1">
          <mxGeometry x="60" y="10" width="690" height="380" as="geometry" />
        </mxCell>
        <mxCell id="RVGGCPNI0EhBYUwfPTv6-23" value="Process" style="rounded=0;whiteSpace=wrap;html=1;fillColor=none;strokeColor=#FF9645;align=left;" vertex="1" parent="1">
          <mxGeometry x="60" y="400" width="680" height="300" as="geometry" />
        </mxCell>
        <mxCell id="RVGGCPNI0EhBYUwfPTv6-24" value="Output" style="rounded=0;whiteSpace=wrap;html=1;fillColor=none;strokeColor=#FF9645;align=left;" vertex="1" parent="1">
          <mxGeometry x="60" y="710" width="680" height="110" as="geometry" />
        </mxCell>
      </root>
    </mxGraphModel>
  </diagram>
</mxfile>